Complete name                    : The Man Without a Past aka Mies vailla menneisyyttä .mkv
Format                           : Matroska
File size                        : 1.37 GiB
Duration                         : 1h 32mn
Overall bit rate                 : 2 118 Kbps


Video
ID                               : 1
Format                           : AVC

Codec ID                         : V_MPEG4/ISO/AVC
Duration                         : 1h 32mn
Bit rate                         : 1 880 Kbps
Nominal bit rate                 : 1 914 Kbps
Width                            : 718 pixels
Height                           : 554 pixels
Display aspect ratio             : 16/9
Frame rate                       : 25.000 fps
Resolution                       : 24 bits
Colorimetry                      : 4:2:0
Scan type                        : Progressive
Bits/(Pixel*Frame)               : 0.189
Stream size                      : 1.22 GiB (89%)
Writing library                  : x264 core 79

Audio
ID                               : 2
Format                           : MPEG Audio
Format version                   : Version 1
Format profile                   : Layer 3
Codec ID                         : A_MPEG/L3
Codec ID/Hint                    : MP3
Duration                         : 1h 32mn
Bit rate mode                    : Constant
Bit rate                         : 192 Kbps
Channel(s)                       : 2 channels
Sampling rate                    : 48.0 KHz
Resolution                       : 16 bits
Stream size                      : 127 MiB (9%)
Language                         : Finnish

Text #1
Language                         : Danish

Text #2
Language                         : Swedish

Text #3
Language                         : Norwegian

Text #4
Language                         : English

 
http://en.wikipedia.org/wiki/The_Man_Without_a_Past